HIERARCHY
ROOT Hips
{
  OFFSET 5.80788e-005 67.184 3.4734
  CHANNELS 6 Xposition Yposition Zposition Zrotation Xrotation Yrotation
  JOINT Chest
  {
    OFFSET 0 8.7983 -4.7612
    CHANNELS 6 Xposition Yposition Zposition Zrotation Xrotation Yrotation
    JOINT Chest2
    {
      OFFSET 0 8.0291 0.4195
      CHANNELS 6 Xposition Yposition Zposition Zrotation Xrotation Yrotation
      JOINT Chest3
      {
        OFFSET 0 9.9351 -2.2114
        CHANNELS 6 Xposition Yposition Zposition Zrotation Xrotation Yrotation
        JOINT Neck
        {
          OFFSET 0 22.3885 -0.4656
          CHANNELS 6 Xposition Yposition Zposition Zrotation Xrotation Yrotation
          JOINT Head
          {
            OFFSET -0.0001 12.643 3.4389
            CHANNELS 6 Xposition Yposition Zposition Zrotation Xrotation Yrotation
            End Site
            {
              OFFSET 0.0001 17.6655 0.5274
            }
          }
        }
        JOINT LeftCollar
        {
          OFFSET 2.2603 21.606 7.4023
          CHANNELS 6 Xposition Yposition Zposition Zrotation Xrotation Yrotation
          JOINT LeftShoulder
          {
            OFFSET 13.5163 -1.1332 -5.0146
            CHANNELS 6 Xposition Yposition Zposition Zrotation Xrotation Yrotation
            JOINT LeftElbow
            {
              OFFSET -0.0995 -28.05 -0.2431
              CHANNELS 6 Xposition Yposition Zposition Zrotation Xrotation Yrotation
              JOINT LeftWrist
              {
                OFFSET 0.0679 -23.3996 -0.1402
                CHANNELS 6 Xposition Yposition Zposition Zrotation Xrotation Yrotation
                JOINT LeftFinger1
                {
                  OFFSET 0.7932 -9.069 2.5189
                  CHANNELS 6 Xposition Yposition Zposition Zrotation Xrotation Yrotation
                  JOINT LeftFinger11
                  {
                    OFFSET -0.8272 -3.3923 0.5977
                    CHANNELS 6 Xposition Yposition Zposition Zrotation Xrotation Yrotation
                    JOINT LeftFinger12
                    {
                      OFFSET -0.5649 -2.3158 0.4082
                      CHANNELS 6 Xposition Yposition Zposition Zrotation Xrotation Yrotation
                      End Site
                      {
                        OFFSET -0.4919 -1.6479 0.2673
                      }
                    }
                  }
                }
                JOINT LeftFinger2
                {
                  OFFSET 0.9159 -9.2044 0.2193
                  CHANNELS 6 Xposition Yposition Zposition Zrotation Xrotation Yrotation
                  JOINT LeftFinger21
                  {
                    OFFSET 0.0117 -4.1944 -0.0248
                    CHANNELS 6 Xposition Yposition Zposition Zrotation Xrotation Yrotation
                    JOINT LeftFinger22
                    {
                      OFFSET 0.0071 -2.3249 -0.0142
                      CHANNELS 6 Xposition Yposition Zposition Zrotation Xrotation Yrotation
                      End Site
                      {
                        OFFSET -0.1475 -2.0882 0.0028
                      }
                    }
                  }
                }
                JOINT LeftFinger3
                {
                  OFFSET 0.6113 -8.7231 -2.0637
                  CHANNELS 6 Xposition Yposition Zposition Zrotation Xrotation Yrotation
                  JOINT LeftFinger31
                  {
                    OFFSET -0.1927 -3.8059 -0.2383
                    CHANNELS 6 Xposition Yposition Zposition Zrotation Xrotation Yrotation
                    JOINT LeftFinger32
                    {
                      OFFSET -0.1091 -2.1688 -0.1362
                      CHANNELS 6 Xposition Yposition Zposition Zrotation Xrotation Yrotation
                      End Site
                      {
                        OFFSET -0.2358 -1.9176 -0.0906
                      }
                    }
                  }
                }
                JOINT LeftFinger4
                {
                  OFFSET -0.6151 -8.0947 -3.5641
                  CHANNELS 6 Xposition Yposition Zposition Zrotation Xrotation Yrotation
                  JOINT LeftFinger41
                  {
                    OFFSET -0.4882 -2.341 -0.6462
                    CHANNELS 6 Xposition Yposition Zposition Zrotation Xrotation Yrotation
                    JOINT LeftFinger42
                    {
                      OFFSET -0.3575 -1.7167 -0.4742
                      CHANNELS 6 Xposition Yposition Zposition Zrotation Xrotation Yrotation
                      End Site
                      {
                        OFFSET -0.4187 -1.5237 -0.3496
                      }
                    }
                  }
                }
                JOINT LeftFinger0
                {
                  OFFSET -1.42 -1.8761 1.4223
                  CHANNELS 6 Xposition Yposition Zposition Zrotation Xrotation Yrotation
                  JOINT LeftFinger01
                  {
                    OFFSET -1.1471 -3.4929 2.6334
                    CHANNELS 6 Xposition Yposition Zposition Zrotation Xrotation Yrotation
                    JOINT LeftFinger02
                    {
                      OFFSET -0.823 -2.3 1.6571
                      CHANNELS 6 Xposition Yposition Zposition Zrotation Xrotation Yrotation
                      End Site
                      {
                        OFFSET -0.5822 -1.6914 1.1582
                      }
                    }
                  }
                }
              }
            }
          }
        }
        JOINT RightCollar
        {
          OFFSET -2.2603 21.606 7.4023
          CHANNELS 6 Xposition Yposition Zposition Zrotation Xrotation Yrotation
          JOINT RightShoulder
          {
            OFFSET -13.5187 -1.1334 -5.0155
            CHANNELS 6 Xposition Yposition Zposition Zrotation Xrotation Yrotation
            JOINT RightElbow
            {
              OFFSET 0.0994 -28.0499 -0.2431
              CHANNELS 6 Xposition Yposition Zposition Zrotation Xrotation Yrotation
              JOINT RightWrist
              {
                OFFSET -0.0679 -23.3996 -0.1402
                CHANNELS 6 Xposition Yposition Zposition Zrotation Xrotation Yrotation
                JOINT RightFinger1
                {
                  OFFSET -0.7932 -9.0691 2.5189
                  CHANNELS 6 Xposition Yposition Zposition Zrotation Xrotation Yrotation
                  JOINT RightFinger11
                  {
                    OFFSET 0.8272 -3.3923 0.5977
                    CHANNELS 6 Xposition Yposition Zposition Zrotation Xrotation Yrotation
                    JOINT RightFinger12
                    {
                      OFFSET 0.565 -2.3158 0.4082
                      CHANNELS 6 Xposition Yposition Zposition Zrotation Xrotation Yrotation
                      End Site
                      {
                        OFFSET 0.4919 -1.6479 0.2673
                      }
                    }
                  }
                }
                JOINT RightFinger2
                {
                  OFFSET -0.916 -9.2044 0.2193
                  CHANNELS 6 Xposition Yposition Zposition Zrotation Xrotation Yrotation
                  JOINT RightFinger21
                  {
                    OFFSET -0.0117 -4.1944 -0.0248
                    CHANNELS 6 Xposition Yposition Zposition Zrotation Xrotation Yrotation
                    JOINT RightFinger22
                    {
                      OFFSET -0.0071 -2.3249 -0.0142
                      CHANNELS 6 Xposition Yposition Zposition Zrotation Xrotation Yrotation
                      End Site
                      {
                        OFFSET 0.1475 -2.0882 0.0028
                      }
                    }
                  }
                }
                JOINT RightFinger3
                {
                  OFFSET -0.6113 -8.7231 -2.0637
                  CHANNELS 6 Xposition Yposition Zposition Zrotation Xrotation Yrotation
                  JOINT RightFinger31
                  {
                    OFFSET 0.1927 -3.8059 -0.2383
                    CHANNELS 6 Xposition Yposition Zposition Zrotation Xrotation Yrotation
                    JOINT RightFinger32
                    {
                      OFFSET 0.1091 -2.1688 -0.1362
                      CHANNELS 6 Xposition Yposition Zposition Zrotation Xrotation Yrotation
                      End Site
                      {
                        OFFSET 0.2358 -1.9176 -0.0906
                      }
                    }
                  }
                }
                JOINT RightFinger4
                {
                  OFFSET 0.6151 -8.0947 -3.564
                  CHANNELS 6 Xposition Yposition Zposition Zrotation Xrotation Yrotation
                  JOINT RightFinger41
                  {
                    OFFSET 0.4882 -2.341 -0.6462
                    CHANNELS 6 Xposition Yposition Zposition Zrotation Xrotation Yrotation
                    JOINT RightFinger42
                    {
                      OFFSET 0.3574 -1.7166 -0.4742
                      CHANNELS 6 Xposition Yposition Zposition Zrotation Xrotation Yrotation
                      End Site
                      {
                        OFFSET 0.4187 -1.5237 -0.3496
                      }
                    }
                  }
                }
                JOINT RightFinger0
                {
                  OFFSET 1.4199 -1.8761 1.4221
                  CHANNELS 6 Xposition Yposition Zposition Zrotation Xrotation Yrotation
                  JOINT RightFinger01
                  {
                    OFFSET 1.1472 -3.4929 2.6336
                    CHANNELS 6 Xposition Yposition Zposition Zrotation Xrotation Yrotation
                    JOINT RightFinger02
                    {
                      OFFSET 0.8229 -2.3 1.6571
                      CHANNELS 6 Xposition Yposition Zposition Zrotation Xrotation Yrotation
                      End Site
                      {
                        OFFSET 0.5822 -1.6914 1.1582
                      }
                    }
                  }
                }
              }
            }
          }
        }
      }
    }
  }
  JOINT RightHip
  {
    OFFSET -9.412 3.9771 -0.7758
    CHANNELS 6 Xposition Yposition Zposition Zrotation Xrotation Yrotation
    JOINT RightKnee
    {
      OFFSET -0.7531 -40.938 0
      CHANNELS 6 Xposition Yposition Zposition Zrotation Xrotation Yrotation
      JOINT RightAnkle
      {
        OFFSET 0 -40.1986 0
        CHANNELS 6 Xposition Yposition Zposition Zrotation Xrotation Yrotation
        JOINT RightToe
        {
          OFFSET 0 -4.4182 9.239
          CHANNELS 6 Xposition Yposition Zposition Zrotation Xrotation Yrotation
          End Site
          {
            OFFSET 0 0 6.1981
          }
        }
      }
    }
  }
  JOINT LeftHip
  {
    OFFSET 9.4119 3.9773 -0.7758
    CHANNELS 6 Xposition Yposition Zposition Zrotation Xrotation Yrotation
    JOINT LeftKnee
    {
      OFFSET 0.7532 -40.9383 0
      CHANNELS 6 Xposition Yposition Zposition Zrotation Xrotation Yrotation
      JOINT LeftAnkle
      {
        OFFSET 0 -40.1986 0
        CHANNELS 6 Xposition Yposition Zposition Zrotation Xrotation Yrotation
        JOINT LeftToe
        {
          OFFSET 0 -4.4182 9.239
          CHANNELS 6 Xposition Yposition Zposition Zrotation Xrotation Yrotation
          End Site
          {
            OFFSET 0 0 6.1981
          }
        }
      }
    }
  }
}
MOTION
Frames:	4
Frame Time:	0.0333333
5.80788e-005 67.184 3.4734 0 0 -0 0 8.7983 -4.7612 0 0 -0 0 8.0291 0.4195 0 0 -0 0 9.9351 -2.2114 0 0 -0 0 22.3885 -0.4656 0 0 -0 -0.0001 12.643 3.4389 0 0 -0 2.2603 21.606 7.4023 0 0 -12.5014 13.5163 -1.1332 -5.0146 88.1196 14.2451 10.6914 -0.0995 -28.05 -0.2431 -0.00160068 -0.00239207 0.000740045 0.0679 -23.3996 -0.1402 -8.4365e-005 7.00714e-005 -9.52055e-007 0.7932 -9.069 2.5189 9.93923e-017 -1.98785e-016 -1.59028e-015 -0.8272 -3.3923 0.5977 9.93923e-017 -5.96354e-016 -1.59028e-015 -0.5649 -2.3158 0.4082 -9.93923e-017 -5.96354e-016 -1.59028e-015 0.9159 -9.2044 0.2193 9.93923e-017 -1.98785e-016 -1.59028e-015 0.0117 -4.1944 -0.0248 -0.0128176 0.00232552 8.52707e-005 0.0071 -2.3249 -0.0142 9.93923e-017 5.96354e-016 -0 0.6113 -8.7231 -2.0637 9.93923e-017 -1.98785e-016 -1.59028e-015 -0.1927 -3.8059 -0.2383 -0.0160551 0.00299681 0.000857156 -0.1091 -2.1688 -0.1362 -2.48481e-016 0 3.18055e-015 -0.6151 -8.0947 -3.5641 9.93923e-017 -1.98785e-016 -1.59028e-015 -0.4882 -2.341 -0.6462 -0.0125865 0.0031206 0.00282719 -0.3575 -1.7167 -0.4742 0 1.98785e-016 -0 -1.42 -1.8761 1.4223 9.93923e-017 -1.98785e-016 -1.59028e-015 -1.1471 -3.4929 2.6334 9.93923e-017 -5.96354e-016 -1.59028e-015 -0.823 -2.3 1.6571 -9.93923e-017 -5.96354e-016 -1.59028e-015 -2.2603 21.606 7.4023 -0.865644 0.16582 7.03859 -13.5187 -1.1334 -5.0155 -88.0329 10.2057 -10.5567 0.0994 -28.0499 -0.2431 0.0015593 -0.00248883 -0.000788628 -0.0679 -23.3996 -0.1402 7.87605e-005 4.10553e-005 1.24965e-005 -0.7932 -9.0691 2.5189 -3.97569e-016 -7.95139e-016 3.18055e-015 0.8272 -3.3923 0.5977 -1.98785e-016 -3.97569e-016 3.18055e-015 0.565 -2.3158 0.4082 -1.98785e-016 0 3.18055e-015 -0.916 -9.2044 0.2193 -3.97569e-016 -7.95139e-016 3.18055e-015 -0.0117 -4.1944 -0.0248 0.0129473 0.00231697 -8.70038e-005 -0.0071 -2.3249 -0.0142 9.93923e-017 -7.95139e-016 1.59028e-015 -0.6113 -8.7231 -2.0637 -3.97569e-016 -7.95139e-016 3.18055e-015 0.1927 -3.8059 -0.2383 0.0163314 0.00303369 -0.000872333 0.1091 -2.1688 -0.1362 3.97569e-016 7.95139e-016 -3.18055e-015 0.6151 -8.0947 -3.564 -3.97569e-016 -7.95139e-016 3.18055e-015 0.4882 -2.341 -0.6462 0.0145763 0.00367772 -0.00326275 0.3574 -1.7166 -0.4742 9.93923e-017 -3.97569e-016 -0 1.4199 -1.8761 1.4221 -3.97569e-016 -7.95139e-016 3.18055e-015 1.1472 -3.4929 2.6336 -1.98785e-016 -3.97569e-016 3.18055e-015 0.8229 -2.3 1.6571 -1.98785e-016 0 3.18055e-015 -9.412 3.9771 -0.7758 3.42485 1.36937 -0.0640303 -0.7531 -40.938 0 0.000136572 0.69354 0.00145564 1.77636e-015 -40.1986 -1.11022e-016 -3.42573 -2.06297 -0.0607933 8.88178e-016 -4.4182 9.239 -3.19502e-024 0 -1.48106e-024 9.4119 3.9773 -0.7758 -3.42498 1.36123 0.0639712 0.7532 -40.9383 2.22045e-016 -6.769e-005 0.712612 -0.0012277 8.88179e-016 -40.1986 0 3.42582 -2.07388 0.0612819 -8.88178e-016 -4.4182 9.239 2.55305e-023 0 -2.31416e-026 
1.063 34.529 48.1366 26.2367 -47.2276 1.25724e-006 -3.55271e-015 8.7983 -4.7612 -4.82666 1.6283 -2.09408 0 8.0291 0.4195 -9.59699 3.42604 -4.0463 3.55271e-015 9.9351 -2.2114 -9.59702 3.42608 -4.04631 0 22.3885 -0.4656 -11.1175 0.0637623 -7.87989 -0.0001 12.643 3.4389 -0.665039 -1.03692 15.3444 2.2603 21.606 7.4023 -3.08436 -0.714701 -25.1944 13.5163 -1.1332 -5.0146 57.2824 22.5574 51.6777 -0.0995 -28.05 -0.2431 -7.29133 -6.80507 16.5029 0.0679 -23.3996 -0.1402 0.0455081 -9.29053 -19.6479 0.7932 -9.069 2.5189 -4.31287e-006 7.47119e-006 1.78254e-006 -0.8272 -3.3923 0.5977 -1.27222e-014 -1.82999e-006 4.77083e-015 -0.5649 -2.3158 0.4082 -3.18055e-015 0 3.18055e-015 0.9159 -9.2044 0.2193 -4.31287e-006 7.47119e-006 1.78254e-006 0.0117 -4.1944 -0.0248 -0.012811 0.00234093 8.40877e-005 0.0071 -2.3249 -0.0142 -3.18055e-015 -1.59028e-015 1.59028e-015 0.6113 -8.7231 -2.0637 -4.31287e-006 7.47119e-006 1.78254e-006 -0.1927 -3.8059 -0.2383 -0.0160269 0.00299492 0.000847523 -0.1091 -2.1688 -0.1362 -6.36111e-015 0 1.59028e-015 -0.6151 -8.0947 -3.5641 -4.31287e-006 7.47119e-006 1.78254e-006 -0.4882 -2.341 -0.6462 -0.0125572 0.00313174 0.0028157 -0.3575 -1.7167 -0.4742 -3.18055e-015 -1.59028e-015 1.59028e-015 -1.42 -1.8761 1.4223 -4.31287e-006 7.47119e-006 1.78254e-006 -1.1471 -3.4929 2.6334 -1.27222e-014 -1.82999e-006 4.77083e-015 -0.823 -2.3 1.6571 -3.18055e-015 0 3.18055e-015 -2.2603 21.606 7.4023 -0.636711 2.28536 -8.34847 -13.5187 -1.1334 -5.0155 -84.8819 -3.26271 6.37606 0.0994 -28.0499 -0.2431 -28.747 -35.8617 -16.4418 -0.0679 -23.3996 -0.1402 3.08188 -0.938176 5.75644 -0.7932 -9.0691 2.5189 -2.06239e-015 -7.95139e-016 6.36111e-015 0.8272 -3.3923 0.5977 -1.73937e-015 -4.47266e-016 3.18055e-015 0.565 -2.3158 0.4082 3.3048e-015 -6.4605e-016 6.36111e-015 -0.916 -9.2044 0.2193 -2.06239e-015 -7.95139e-016 6.36111e-015 -0.0117 -4.1944 -0.0248 0.0130661 0.00233638 -8.72365e-005 -0.0071 -2.3249 -0.0142 5.24295e-015 -4.02539e-015 -0 -0.6113 -8.7231 -2.0637 -2.06239e-015 -7.95139e-016 6.36111e-015 0.1927 -3.8059 -0.2383 0.0162808 0.00302201 -0.000871307 0.1091 -2.1688 -0.1362 -1.19271e-015 2.43511e-015 -3.18055e-015 0.6151 -8.0947 -3.564 -2.06239e-015 -7.95139e-016 6.36111e-015 0.4882 -2.341 -0.6462 0.0145718 0.00367644 -0.00325931 0.3574 -1.7166 -0.4742 -4.5969e-015 -2.98177e-016 -3.18055e-015 1.4199 -1.8761 1.4221 -2.06239e-015 -7.95139e-016 6.36111e-015 1.1472 -3.4929 2.6336 -1.73937e-015 -4.47266e-016 3.18055e-015 0.8229 -2.3 1.6571 3.3048e-015 -6.4605e-016 6.36111e-015 -9.412 3.9771 -0.7758 -18.9126 -31.7148 -21.7529 -0.7531 -40.938 0 4.40921 42.5551 -7.88083 -3.55271e-015 -40.1986 0 6.73231 1.90269 -2.49187 0 -4.4182 9.239 4.03243e-006 -1.36194e-006 4.8001e-006 9.4119 3.9773 -0.7758 -8.93995 -24.3461 26.3383 0.7532 -40.9383 -7.10543e-015 2.78144 52.0538 -2.97043 1.77636e-015 -40.1986 0 5.96594 -2.72405 -3.21007 -8.88178e-016 -4.4182 9.239 4.7347e-007 3.11532e-009 5.04041e-008 
-2.68994 7.19513 81.0795 48.1179 -86.6151 -0 -4.44089e-016 8.7983 -4.7612 -8.75213 2.61574 -3.93144 0 8.0291 0.4195 -17.3373 5.79405 -7.43217 7.10543e-015 9.9351 -2.2114 -17.3373 5.79405 -7.4322 -7.10543e-015 22.3885 -0.4656 -20.3764 0.170737 -14.4296 -0.0001 12.643 3.4389 -0.83817 -1.70829 28.1531 2.2603 21.606 7.4023 -5.89232 -1.23429 -35.7841 13.5163 -1.1332 -5.0146 31.298 27.1686 84.9481 -0.0995 -28.05 -0.2431 -13.3079 -12.563 30.1654 0.0679 -23.3996 -0.1402 0.100854 -17.246 -36.1475 0.7932 -9.069 2.5189 1.91258e-006 1.09419e-006 -3.695e-006 -0.8272 -3.3923 0.5977 -2.81407e-006 1.18853e-007 -1.11398e-006 -0.5649 -2.3158 0.4082 -3.00495e-007 2.36137e-008 -1.60299e-006 0.9159 -9.2044 0.2193 1.91258e-006 1.09419e-006 -3.695e-006 0.0117 -4.1944 -0.0248 -0.0128269 0.00231762 8.51668e-005 0.0071 -2.3249 -0.0142 -3.22155e-006 1.11619e-005 -4.58765e-006 0.6113 -8.7231 -2.0637 1.91258e-006 1.09419e-006 -3.695e-006 -0.1927 -3.8059 -0.2383 -0.0160419 0.00299235 0.000861885 -0.1091 -2.1688 -0.1362 -1.97599e-006 2.73613e-008 -1.27709e-006 -0.6151 -8.0947 -3.5641 1.91258e-006 1.09419e-006 -3.695e-006 -0.4882 -2.341 -0.6462 -0.0126115 0.00312843 0.00283603 -0.3575 -1.7167 -0.4742 6.94721e-007 1.84586e-006 -2.65775e-006 -1.42 -1.8761 1.4223 1.91258e-006 1.09419e-006 -3.695e-006 -1.1471 -3.4929 2.6334 -2.81407e-006 1.18853e-007 -1.11398e-006 -0.823 -2.3 1.6571 -3.00495e-007 2.36137e-008 -1.60299e-006 -2.2603 21.606 7.4023 0.348775 3.73215 -21.2232 -13.5187 -1.1334 -5.0155 -82.4452 -14.7523 20.0949 0.0994 -28.0499 -0.2431 -55.258 -64.1891 -30.0504 -0.0679 -23.3996 -0.1402 5.65579 -1.73924 10.5266 -0.7932 -9.0691 2.5189 1.98785e-016 3.18055e-015 -1.59028e-015 0.8272 -3.3923 0.5977 0 1.59028e-015 -0 0.565 -2.3158 0.4082 1.98785e-016 1.59028e-015 1.59028e-015 -0.916 -9.2044 0.2193 1.98785e-016 3.18055e-015 -1.59028e-015 -0.0117 -4.1944 -0.0248 0.0129436 0.00231566 -8.73287e-005 -0.0071 -2.3249 -0.0142 1.98785e-016 -7.95139e-016 -0 -0.6113 -8.7231 -2.0637 1.98785e-016 3.18055e-015 -1.59028e-015 0.1927 -3.8059 -0.2383 0.0163301 0.00303492 -0.000872367 0.1091 -2.1688 -0.1362 -1.16905e-007 4.25123e-007 8.25174e-007 0.6151 -8.0947 -3.564 1.98785e-016 3.18055e-015 -1.59028e-015 0.4882 -2.341 -0.6462 0.0145787 0.00368203 -0.00326745 0.3574 -1.7166 -0.4742 6.53217e-006 1.5596e-006 1.99885e-006 1.4199 -1.8761 1.4221 1.98785e-016 3.18055e-015 -1.59028e-015 1.1472 -3.4929 2.6336 0 1.59028e-015 -0 0.8229 -2.3 1.6571 1.98785e-016 1.59028e-015 1.59028e-015 -9.412 3.9771 -0.7758 -64.1499 -48.9371 -56.5953 -0.7531 -40.938 1.42109e-014 39.379 75.3617 -42.7057 1.77636e-015 -40.1986 0 15.7295 5.15286 -4.27092 0 -4.4182 9.239 -1.59028e-015 3.18055e-015 7.95139e-016 9.4119 3.9773 -0.7758 2.97695 -33.8657 56.0964 0.7532 -40.9383 5.32907e-015 114.629 84.9932 -113.001 3.55271e-015 -40.1986 0 8.18465 -1.87041 -5.65217 0 -4.4182 9.239 -0 -1.64171e-006 -0 
-3.99656 -0.266815 88.6633 -126.401 -83.518 180 0 8.7983 -4.7612 -9.72085 2.80794 -4.40034 1.77636e-015 8.0291 0.4195 -19.2409 6.31166 -8.28059 -7.10543e-015 9.9351 -2.2114 -19.2409 6.31166 -8.28061 7.10543e-015 22.3885 -0.4656 -22.6874 0.449707 -15.9715 -0.0001 12.643 3.4389 -0.961773 -1.70523 31.3735 2.2603 21.606 7.4023 -6.62647 -1.34608 -38.4376 13.5163 -1.1332 -5.0146 24.9969 28.076 92.9764 -0.0995 -28.05 -0.2431 -14.8043 -14.0156 33.5782 0.0679 -23.3996 -0.1402 0.125931 -19.2715 -40.6974 0.7932 -9.069 2.5189 1.59028e-015 -3.18055e-015 -1.59028e-015 -0.8272 -3.3923 0.5977 1.59028e-015 -4.77083e-015 -3.97569e-015 -0.5649 -2.3158 0.4082 3.18055e-015 -1.59028e-015 -3.57812e-015 0.9159 -9.2044 0.2193 1.59028e-015 -3.18055e-015 -1.59028e-015 0.0117 -4.1944 -0.0248 -0.012815 0.00232602 8.71993e-005 0.0071 -2.3249 -0.0142 -3.18055e-015 -3.18055e-015 -1.19271e-015 0.6113 -8.7231 -2.0637 1.59028e-015 -3.18055e-015 -1.59028e-015 -0.1927 -3.8059 -0.2383 -0.0160462 0.00298249 0.000847101 -0.1091 -2.1688 -0.1362 -1.59028e-015 1.59028e-015 -5.96354e-015 -0.6151 -8.0947 -3.5641 1.59028e-015 -3.18055e-015 -1.59028e-015 -0.4882 -2.341 -0.6462 -0.0125797 0.00311024 0.00282269 -0.3575 -1.7167 -0.4742 1.59028e-015 -1.59028e-015 -3.18055e-015 -1.42 -1.8761 1.4223 1.59028e-015 -3.18055e-015 -1.59028e-015 -1.1471 -3.4929 2.6334 1.59028e-015 -4.77083e-015 -3.97569e-015 -0.823 -2.3 1.6571 3.18055e-015 -1.59028e-015 -3.57812e-015 -2.2603 21.606 7.4023 0.695154 4.01901 -24.4561 -13.5187 -1.1334 -5.0155 -81.9166 -17.6427 23.4533 0.0994 -28.0499 -0.2431 -62.643 -70.9727 -33.8384 -0.0679 -23.3996 -0.1402 6.30145 -1.9432 11.7173 -0.7932 -9.0691 2.5189 3.97569e-016 1.59028e-015 3.18055e-015 0.8272 -3.3923 0.5977 7.0433e-008 8.95585e-007 -8.34187e-007 0.565 -2.3158 0.4082 -1.59028e-015 -2.38542e-015 1.59028e-015 -0.916 -9.2044 0.2193 3.97569e-016 1.59028e-015 3.18055e-015 -0.0117 -4.1944 -0.0248 0.0129386 0.0023152 -8.66867e-005 -0.0071 -2.3249 -0.0142 1.78906e-015 0 3.18055e-015 -0.6113 -8.7231 -2.0637 3.97569e-016 1.59028e-015 3.18055e-015 0.1927 -3.8059 -0.2383 0.0163289 0.00303476 -0.000876628 0.1091 -2.1688 -0.1362 -3.97569e-016 0 -0 0.6151 -8.0947 -3.564 3.97569e-016 1.59028e-015 3.18055e-015 0.4882 -2.341 -0.6462 0.0145872 0.00368071 -0.00326574 0.3574 -1.7166 -0.4742 -1.98785e-015 7.95139e-016 -1.59028e-015 1.4199 -1.8761 1.4221 3.97569e-016 1.59028e-015 3.18055e-015 1.1472 -3.4929 2.6336 7.0433e-008 8.95585e-007 -8.34187e-007 0.8229 -2.3 1.6571 -1.59028e-015 -2.38542e-015 1.59028e-015 -9.412 3.9771 -0.7758 -78.97 -49.7398 -67.877 -0.7531 -40.938 1.42109e-014 75.8678 79.066 -78.9443 -1.77636e-015 -40.1986 -7.10543e-015 17.9026 6.23086 -4.85207 0 -4.4182 9.239 -9.54166e-015 -7.95139e-016 3.97569e-016 9.4119 3.9773 -0.7758 7.36695 -33.689 64.084 0.7532 -40.9383 3.55271e-015 157.22 76.8495 -154.801 -7.10543e-015 -40.1986 -1.42109e-014 8.755 -1.69215 -6.18225 -7.10543e-015 -4.4182 9.239 -1.76556e-030 1.59028e-014 6.36111e-015 
